<mxfile host="app.diagrams.net" modified="2023-05-04T13:57:03.628Z" agent="Mozilla/5.0 (Windows NT 10.0; Win64; x64) AppleWebKit/537.36 (KHTML, like Gecko) Chrome/112.0.0.0 Safari/537.36" etag="nlYwwik2P_6pw4xoEnJn" version="21.2.8">
  <diagram name="PÃ¡gina-1" id="LJZ_8FZJ3uyd9Y1cEcLq">
    <mxGraphModel dx="2864" dy="887" grid="0" gridSize="10" guides="1" tooltips="1" connect="1" arrows="1" fold="1" page="0" pageScale="1" pageWidth="827" pageHeight="1169" math="0" shadow="0">
      <root>
        <mxCell id="0" />
        <mxCell id="1" parent="0" />
        <mxCell id="bbGllqv6a2Wm8L2kT-pA-18" value="" style="edgeStyle=orthogonalEdgeStyle;shape=flexArrow;rounded=0;orthogonalLoop=1;jettySize=auto;html=1;" edge="1" parent="1" source="bbGllqv6a2Wm8L2kT-pA-1" target="bbGllqv6a2Wm8L2kT-pA-2">
          <mxGeometry relative="1" as="geometry" />
        </mxCell>
        <mxCell id="bbGllqv6a2Wm8L2kT-pA-1" value="DOCUMENT" style="rounded=0;whiteSpace=wrap;html=1;fontSize=16;strokeColor=#0000FF;" vertex="1" parent="1">
          <mxGeometry x="173" y="34" width="230" height="63" as="geometry" />
        </mxCell>
        <mxCell id="bbGllqv6a2Wm8L2kT-pA-21" style="edgeStyle=orthogonalEdgeStyle;shape=flexArrow;rounded=0;orthogonalLoop=1;jettySize=auto;html=1;" edge="1" parent="1" source="bbGllqv6a2Wm8L2kT-pA-2" target="bbGllqv6a2Wm8L2kT-pA-4">
          <mxGeometry relative="1" as="geometry" />
        </mxCell>
        <mxCell id="bbGllqv6a2Wm8L2kT-pA-22" style="edgeStyle=orthogonalEdgeStyle;shape=flexArrow;rounded=0;orthogonalLoop=1;jettySize=auto;html=1;" edge="1" parent="1" source="bbGllqv6a2Wm8L2kT-pA-2" target="bbGllqv6a2Wm8L2kT-pA-5">
          <mxGeometry relative="1" as="geometry" />
        </mxCell>
        <mxCell id="bbGllqv6a2Wm8L2kT-pA-23" style="edgeStyle=orthogonalEdgeStyle;shape=flexArrow;rounded=0;orthogonalLoop=1;jettySize=auto;html=1;" edge="1" parent="1" source="bbGllqv6a2Wm8L2kT-pA-2" target="bbGllqv6a2Wm8L2kT-pA-3">
          <mxGeometry relative="1" as="geometry" />
        </mxCell>
        <mxCell id="bbGllqv6a2Wm8L2kT-pA-2" value="HTML" style="rounded=0;whiteSpace=wrap;html=1;fontSize=16;strokeColor=#FF8000;" vertex="1" parent="1">
          <mxGeometry x="173" y="162" width="230" height="63" as="geometry" />
        </mxCell>
        <mxCell id="bbGllqv6a2Wm8L2kT-pA-3" value="LANG" style="rounded=0;whiteSpace=wrap;html=1;fontSize=16;strokeColor=#00CC66;" vertex="1" parent="1">
          <mxGeometry x="505" y="162" width="230" height="63" as="geometry" />
        </mxCell>
        <mxCell id="bbGllqv6a2Wm8L2kT-pA-24" style="edgeStyle=orthogonalEdgeStyle;shape=flexArrow;rounded=0;orthogonalLoop=1;jettySize=auto;html=1;entryX=0.5;entryY=0;entryDx=0;entryDy=0;" edge="1" parent="1" source="bbGllqv6a2Wm8L2kT-pA-4" target="bbGllqv6a2Wm8L2kT-pA-6">
          <mxGeometry relative="1" as="geometry" />
        </mxCell>
        <mxCell id="bbGllqv6a2Wm8L2kT-pA-37" style="edgeStyle=orthogonalEdgeStyle;shape=flexArrow;rounded=0;orthogonalLoop=1;jettySize=auto;html=1;entryX=0.5;entryY=0;entryDx=0;entryDy=0;" edge="1" parent="1" source="bbGllqv6a2Wm8L2kT-pA-4" target="bbGllqv6a2Wm8L2kT-pA-36">
          <mxGeometry relative="1" as="geometry" />
        </mxCell>
        <mxCell id="bbGllqv6a2Wm8L2kT-pA-4" value="HEAD" style="rounded=0;whiteSpace=wrap;html=1;fontSize=16;strokeColor=#FF8000;" vertex="1" parent="1">
          <mxGeometry x="-57" y="290" width="230" height="63" as="geometry" />
        </mxCell>
        <mxCell id="bbGllqv6a2Wm8L2kT-pA-26" style="edgeStyle=orthogonalEdgeStyle;shape=flexArrow;rounded=0;orthogonalLoop=1;jettySize=auto;html=1;" edge="1" parent="1" source="bbGllqv6a2Wm8L2kT-pA-5" target="bbGllqv6a2Wm8L2kT-pA-7">
          <mxGeometry relative="1" as="geometry" />
        </mxCell>
        <mxCell id="bbGllqv6a2Wm8L2kT-pA-27" style="edgeStyle=orthogonalEdgeStyle;shape=flexArrow;rounded=0;orthogonalLoop=1;jettySize=auto;html=1;" edge="1" parent="1" source="bbGllqv6a2Wm8L2kT-pA-5" target="bbGllqv6a2Wm8L2kT-pA-8">
          <mxGeometry relative="1" as="geometry" />
        </mxCell>
        <mxCell id="bbGllqv6a2Wm8L2kT-pA-28" style="edgeStyle=orthogonalEdgeStyle;shape=flexArrow;rounded=0;orthogonalLoop=1;jettySize=auto;html=1;entryX=0.5;entryY=0;entryDx=0;entryDy=0;" edge="1" parent="1" source="bbGllqv6a2Wm8L2kT-pA-5" target="bbGllqv6a2Wm8L2kT-pA-9">
          <mxGeometry relative="1" as="geometry" />
        </mxCell>
        <mxCell id="bbGllqv6a2Wm8L2kT-pA-5" value="BODY" style="rounded=0;whiteSpace=wrap;html=1;fontSize=16;strokeColor=#FF8000;" vertex="1" parent="1">
          <mxGeometry x="403" y="288" width="230" height="63" as="geometry" />
        </mxCell>
        <mxCell id="bbGllqv6a2Wm8L2kT-pA-25" style="edgeStyle=orthogonalEdgeStyle;shape=flexArrow;rounded=0;orthogonalLoop=1;jettySize=auto;html=1;" edge="1" parent="1" source="bbGllqv6a2Wm8L2kT-pA-6" target="bbGllqv6a2Wm8L2kT-pA-17">
          <mxGeometry relative="1" as="geometry" />
        </mxCell>
        <mxCell id="bbGllqv6a2Wm8L2kT-pA-6" value="TITLE" style="rounded=0;whiteSpace=wrap;html=1;fontSize=16;strokeColor=#FF8000;" vertex="1" parent="1">
          <mxGeometry x="-57" y="418" width="230" height="63" as="geometry" />
        </mxCell>
        <mxCell id="bbGllqv6a2Wm8L2kT-pA-29" style="edgeStyle=orthogonalEdgeStyle;shape=flexArrow;rounded=0;orthogonalLoop=1;jettySize=auto;html=1;" edge="1" parent="1" source="bbGllqv6a2Wm8L2kT-pA-7" target="bbGllqv6a2Wm8L2kT-pA-15">
          <mxGeometry relative="1" as="geometry" />
        </mxCell>
        <mxCell id="bbGllqv6a2Wm8L2kT-pA-7" value="H1" style="rounded=0;whiteSpace=wrap;html=1;fontSize=16;strokeColor=#FF8000;" vertex="1" parent="1">
          <mxGeometry x="252" y="418" width="230" height="63" as="geometry" />
        </mxCell>
        <mxCell id="bbGllqv6a2Wm8L2kT-pA-30" style="edgeStyle=orthogonalEdgeStyle;shape=flexArrow;rounded=0;orthogonalLoop=1;jettySize=auto;html=1;entryX=0.5;entryY=0;entryDx=0;entryDy=0;" edge="1" parent="1" source="bbGllqv6a2Wm8L2kT-pA-8" target="bbGllqv6a2Wm8L2kT-pA-14">
          <mxGeometry relative="1" as="geometry" />
        </mxCell>
        <mxCell id="bbGllqv6a2Wm8L2kT-pA-8" value="H2" style="rounded=0;whiteSpace=wrap;html=1;fontSize=16;strokeColor=#FF8000;" vertex="1" parent="1">
          <mxGeometry x="539" y="418" width="230" height="63" as="geometry" />
        </mxCell>
        <mxCell id="bbGllqv6a2Wm8L2kT-pA-31" style="edgeStyle=orthogonalEdgeStyle;shape=flexArrow;rounded=0;orthogonalLoop=1;jettySize=auto;html=1;entryX=0.5;entryY=0;entryDx=0;entryDy=0;" edge="1" parent="1" source="bbGllqv6a2Wm8L2kT-pA-9" target="bbGllqv6a2Wm8L2kT-pA-10">
          <mxGeometry relative="1" as="geometry" />
        </mxCell>
        <mxCell id="bbGllqv6a2Wm8L2kT-pA-9" value="OL" style="rounded=0;whiteSpace=wrap;html=1;fontSize=16;strokeColor=#FF8000;" vertex="1" parent="1">
          <mxGeometry x="826" y="418" width="230" height="63" as="geometry" />
        </mxCell>
        <mxCell id="bbGllqv6a2Wm8L2kT-pA-32" style="edgeStyle=orthogonalEdgeStyle;shape=flexArrow;rounded=0;orthogonalLoop=1;jettySize=auto;html=1;entryX=0.5;entryY=0;entryDx=0;entryDy=0;" edge="1" parent="1" source="bbGllqv6a2Wm8L2kT-pA-10" target="bbGllqv6a2Wm8L2kT-pA-11">
          <mxGeometry relative="1" as="geometry" />
        </mxCell>
        <mxCell id="bbGllqv6a2Wm8L2kT-pA-10" value="LI" style="rounded=0;whiteSpace=wrap;html=1;fontSize=16;strokeColor=#FF8000;" vertex="1" parent="1">
          <mxGeometry x="826" y="557" width="230" height="63" as="geometry" />
        </mxCell>
        <mxCell id="bbGllqv6a2Wm8L2kT-pA-34" style="edgeStyle=orthogonalEdgeStyle;shape=flexArrow;rounded=0;orthogonalLoop=1;jettySize=auto;html=1;entryX=0.486;entryY=-0.093;entryDx=0;entryDy=0;entryPerimeter=0;" edge="1" parent="1" source="bbGllqv6a2Wm8L2kT-pA-11" target="bbGllqv6a2Wm8L2kT-pA-13">
          <mxGeometry relative="1" as="geometry" />
        </mxCell>
        <mxCell id="bbGllqv6a2Wm8L2kT-pA-35" style="edgeStyle=orthogonalEdgeStyle;shape=flexArrow;rounded=0;orthogonalLoop=1;jettySize=auto;html=1;entryX=0;entryY=0.5;entryDx=0;entryDy=0;" edge="1" parent="1" source="bbGllqv6a2Wm8L2kT-pA-11" target="bbGllqv6a2Wm8L2kT-pA-12">
          <mxGeometry relative="1" as="geometry" />
        </mxCell>
        <mxCell id="bbGllqv6a2Wm8L2kT-pA-11" value="A" style="rounded=0;whiteSpace=wrap;html=1;fontSize=16;strokeColor=#FF8000;" vertex="1" parent="1">
          <mxGeometry x="826" y="696" width="230" height="63" as="geometry" />
        </mxCell>
        <mxCell id="bbGllqv6a2Wm8L2kT-pA-12" value="HREF" style="rounded=0;whiteSpace=wrap;html=1;fontSize=16;strokeColor=#00CC66;" vertex="1" parent="1">
          <mxGeometry x="1168" y="696" width="230" height="63" as="geometry" />
        </mxCell>
        <mxCell id="bbGllqv6a2Wm8L2kT-pA-13" value="Ir a Microsoft" style="rounded=0;whiteSpace=wrap;html=1;fontSize=16;strokeColor=#CC0000;" vertex="1" parent="1">
          <mxGeometry x="830" y="835" width="230" height="63" as="geometry" />
        </mxCell>
        <mxCell id="bbGllqv6a2Wm8L2kT-pA-14" value="Problema 1" style="rounded=0;whiteSpace=wrap;html=1;fontSize=16;strokeColor=#CC0000;" vertex="1" parent="1">
          <mxGeometry x="539" y="557" width="230" height="63" as="geometry" />
        </mxCell>
        <mxCell id="bbGllqv6a2Wm8L2kT-pA-15" value="Modelo de objetos del Documento" style="rounded=0;whiteSpace=wrap;html=1;fontSize=16;strokeColor=#CC0000;" vertex="1" parent="1">
          <mxGeometry x="252" y="557" width="230" height="63" as="geometry" />
        </mxCell>
        <mxCell id="bbGllqv6a2Wm8L2kT-pA-17" value="Problema 1" style="rounded=0;whiteSpace=wrap;html=1;fontSize=16;strokeColor=#CC0000;" vertex="1" parent="1">
          <mxGeometry x="-57" y="557" width="230" height="63" as="geometry" />
        </mxCell>
        <mxCell id="bbGllqv6a2Wm8L2kT-pA-41" style="edgeStyle=orthogonalEdgeStyle;shape=flexArrow;rounded=0;orthogonalLoop=1;jettySize=auto;html=1;entryX=0.5;entryY=0;entryDx=0;entryDy=0;" edge="1" parent="1" source="bbGllqv6a2Wm8L2kT-pA-36" target="bbGllqv6a2Wm8L2kT-pA-40">
          <mxGeometry relative="1" as="geometry" />
        </mxCell>
        <mxCell id="bbGllqv6a2Wm8L2kT-pA-42" style="edgeStyle=orthogonalEdgeStyle;shape=flexArrow;rounded=0;orthogonalLoop=1;jettySize=auto;html=1;entryX=1;entryY=0.5;entryDx=0;entryDy=0;" edge="1" parent="1" source="bbGllqv6a2Wm8L2kT-pA-36" target="bbGllqv6a2Wm8L2kT-pA-38">
          <mxGeometry relative="1" as="geometry" />
        </mxCell>
        <mxCell id="bbGllqv6a2Wm8L2kT-pA-36" value="META" style="rounded=0;whiteSpace=wrap;html=1;fontSize=16;strokeColor=#FF8000;" vertex="1" parent="1">
          <mxGeometry x="-366" y="418" width="230" height="63" as="geometry" />
        </mxCell>
        <mxCell id="bbGllqv6a2Wm8L2kT-pA-38" value="CHARSET" style="rounded=0;whiteSpace=wrap;html=1;fontSize=16;strokeColor=#00CC66;" vertex="1" parent="1">
          <mxGeometry x="-675" y="418" width="230" height="63" as="geometry" />
        </mxCell>
        <mxCell id="bbGllqv6a2Wm8L2kT-pA-40" value="UTF-8" style="rounded=0;whiteSpace=wrap;html=1;fontSize=16;strokeColor=#CC0000;" vertex="1" parent="1">
          <mxGeometry x="-366" y="560" width="230" height="63" as="geometry" />
        </mxCell>
      </root>
    </mxGraphModel>
  </diagram>
</mxfile>
